:version 1.10
:name ASF
:units
  mass 1
  length 1
  angle deg
:documentation
  ASF file generated by Kaydara
:root
  axis xyz
  order  tx ty tz rx ry rz
  position 0 0 0
  orientation 0 0 0
:bonedata
  begin
    id 1
    name LeftUpLegDummy
    direction 1 -2.30186e-007 -8.31532e-007
    length 2.93387
    axis 0 0 0 xyz
  end
  begin
    id 2
    name LeftUpLeg
    direction -1.82929e-007 -1 -1.48925e-009
    length 17.3336
    axis -3.48766 0.00143442 -0.000521554 xyz
    dof rx ry rz
  end
  begin
    id 3
    name LeftLeg
    direction -1.82929e-007 -1 -5.23717e-011
    length 14.9995
    axis 3.68178 -0.00654042 -0.000282425 xyz
    dof rx ry rz
  end
  begin
    id 4
    name LeftFoot
    direction 8.31532e-007 -4.54534e-011 1
    length 6.74421
    axis 1.87234e-006 4.66016e-005 -5.96866e-006 xyz
    dof rx ry rz
  end
  begin
    id 5
    name LeftToes
    direction 0.00818058 -0.00485161 0.999955
    length 3.85048
    axis 1.06247e-005 4.65869e-005 -5.96999e-006 xyz
    dof rx ry rz
  end
  begin
    id 6
    name SpineDummy
    direction -5.8607e-008 0.943407 -0.331637
    length 5.93572
    axis 0 0 0 xyz
  end
  begin
    id 7
    name Spine
    direction -1.04988e-007 0.999988 0.00495137
    length 10.1015
    axis -0.001389 0.000121417 6.61666e-006 xyz
    dof rx ry rz
  end
  begin
    id 8
    name Spine1
    direction 0 0 0
    length 0
    axis -0.001389 0.00012144 6.56766e-006 xyz
    dof rx ry rz
  end
  begin
    id 9
    name RightShoulderDummy
    direction -0.98348 0.17941 -0.0240696
    length 3.59882
    axis -0.001389 0.00012144 6.56766e-006 xyz
  end
  begin
    id 10
    name RightShoulder
    direction -0.978693 0.204882 0.0135597
    length 2.70001
    axis 0.215806 0.000203631 -0.00679732 xyz
    dof rx ry rz
  end
  begin
    id 11
    name RightArm
    direction -1 3.85509e-006 8.31394e-007
    length 10.2459
    axis -23.2009 -0.134239 -0.964098 xyz
    dof rx ry rz
  end
  begin
    id 12
    name RightForeArm
    direction -1 3.85569e-006 8.3129e-007
    length 8.16799
    axis -9.92322 0.0658061 0.17887 xyz
    dof rx ry rz
  end
  begin
    id 13
    name RightHand
    direction -0.992843 -0.0414604 0.112003
    length 5.28593
    axis -0.00960638 0.00330669 -0.185225 xyz
    dof rx ry rz
  end
  begin
    id 14
    name LeftShoulder1Dummy
    direction 0.983523 0.179172 -0.0240748
    length 3.59866
    axis -0.001389 0.00012144 6.56766e-006 xyz
  end
  begin
    id 15
    name LeftShoulder1
    direction 0.978627 0.205195 0.0135605
    length 2.70019
    axis -0.001389 0.00012144 6.57583e-006 xyz
    dof rx ry rz
  end
  begin
    id 16
    name LeftArm
    direction 1 3.51895e-006 -8.60188e-007
    length 10.2459
    axis -23.1894 0.134785 0.967513 xyz
    dof rx ry rz
  end
  begin
    id 17
    name LeftForeArm
    direction 1 3.51921e-006 -7.32029e-007
    length 8.16799
    axis -9.91835 -0.0656957 -0.177789 xyz
    dof rx ry rz
  end
  begin
    id 18
    name LeftHand
    direction 0.992938 -0.0411636 0.11126
    length 5.32135
    axis -0.00960237 -0.00340661 0.185177 xyz
    dof rx ry rz
  end
  begin
    id 19
    name HEadDummy
    direction 1.01974e-006 0.999861 -0.016675
    length 2.99946
    axis -0.001389 0.00012144 6.56766e-006 xyz
  end
  begin
    id 20
    name HEad
    direction -0.0222689 0.980941 0.193023
    length 5.12695
    axis -0.001389 0.00012144 6.56766e-006 xyz
    dof rx ry rz
  end
  begin
    id 21
    name RightUpLegDummy
    direction -1 2.30186e-007 8.31532e-007
    length 2.93387
    axis 0 0 0 xyz
  end
  begin
    id 22
    name RightUpLeg
    direction -1.82966e-007 -1 1.56832e-007
    length 17.3336
    axis -3.4909 -0.000906625 0.00028951 xyz
    dof rx ry rz
  end
  begin
    id 23
    name RightLeg
    direction -1.82786e-007 -1 -1.80317e-007
    length 14.9995
    axis 3.68513 0.0193739 -0.131021 xyz
    dof rx ry rz
  end
  begin
    id 24
    name RightFoot
    direction 8.31721e-007 -4.63324e-011 1
    length 6.74421
    axis 4.81691e-005 -0.120479 -0.188785 xyz
    dof rx ry rz
  end
  begin
    id 25
    name RightToes
    direction 0.00124746 -0.014064 0.9999
    length 3.85082
    axis 0.000481921 0.542163 -0.142575 xyz
    dof rx ry rz
  end
:hierarchy
  begin
    root LeftUpLegDummy SpineDummy RightUpLegDummy
    LeftUpLegDummy LeftUpLeg
    LeftUpLeg LeftLeg
    LeftLeg LeftFoot
    LeftFoot LeftToes
    SpineDummy Spine
    Spine Spine1
    Spine1 RightShoulderDummy LeftShoulder1Dummy HEadDummy
    RightShoulderDummy RightShoulder
    RightShoulder RightArm
    RightArm RightForeArm
    RightForeArm RightHand
    LeftShoulder1Dummy LeftShoulder1
    LeftShoulder1 LeftArm
    LeftArm LeftForeArm
    LeftForeArm LeftHand
    HEadDummy HEad
    RightUpLegDummy RightUpLeg
    RightUpLeg RightLeg
    RightLeg RightFoot
    RightFoot RightToes
  end

:SAMPLES-PER-SECOND 30
:FULLY-SPECIFIED
:DEGREES
337
root  25.6456 34.1133 24.4839 0.936584 54.1495 -4.8421
LeftUpLeg  -18.5852 16.6875 8.96105
LeftLeg  47.7443 8.79216 8.40791
LeftFoot  -2.17938 -0.00925928 -0.486799
LeftToes  -9.90954 1.61378e-006 8.80029e-008
Spine  3.66444 1.41449 1.37432
Spine1  7.18576 2.90242 2.4172
RightShoulder  0.110407 6.39415 7.56933
RightArm  -34.3094 -8.52955 67.8128
RightForeArm  26.1166 17.4458 3.17229
RightHand  0.550976 -7.59236 -7.9125
LeftShoulder1  0.01026 1.08887 -9.3084
LeftArm  -24.8332 16.7367 -72.9929
LeftForeArm  31.2234 -16.0074 -2.89205
LeftHand  0.0979221 3.48531 2.84207
HEad  -5.33468 -15.8769 -5.38154
RightUpLeg  -12.9608 -17.1618 7.87496
RightLeg  11.8147 -2.71749 -0.386686
RightFoot  -1.34255 -0.00705583 0.0476369
RightToes  -14.0209 -0.0539393 -0.12908
338
root  25.8303 34.1351 24.7023 1.64455 52.6924 -3.82159
LeftUpLeg  -20.6319 14.6657 7.10127
LeftLeg  45.922 8.28504 7.4481
LeftFoot  -3.04511 -0.0159997 -0.60195
LeftToes  -9.83703 1.61378e-006 8.80029e-008
Spine  3.89835 1.73221 1.19668
Spine1  7.63129 3.61128 2.03409
RightShoulder  0.118074 6.52907 7.24713
RightArm  -32.6869 -6.30473 68.2508
RightForeArm  26.113 17.9652 3.27319
RightHand  0.551853 -7.50395 -8.02321
LeftShoulder1  0.0087837 1.02377 -9.21866
LeftArm  -23.1211 15.4709 -73.0594
LeftForeArm  30.5843 -18.0859 -3.29307
LeftHand  0.0934591 3.29022 2.87721
HEad  -5.48843 -15.447 -5.58362
RightUpLeg  -12.3818 -16.7865 7.33079
RightLeg  12.0008 -1.75551 -0.255315
RightFoot  -1.87153 -0.00652611 0.0480734
RightToes  -13.935 -0.0550598 -0.130313
339
root  26.028 34.1549 24.9222 2.28116 51.3742 -2.9418
LeftUpLeg  -22.2778 12.132 5.42655
LeftLeg  42.3904 9.16191 7.26612
LeftFoot  -3.54451 -0.0223934 -0.723732
LeftToes  -9.2341 1.61378e-006 8.80029e-008
Spine  4.10523 2.02022 1.04786
Spine1  8.01989 4.25656 1.71995
RightShoulder  0.125282 6.62053 6.9426
RightArm  -30.8159 -4.45141 68.6558
RightForeArm  25.7273 18.5697 3.39154
RightHand  0.539745 -7.45562 -7.89285
LeftShoulder1  0.0074699 1.02848 -9.32041
LeftArm  -21.6124 13.9038 -72.9231
LeftForeArm  30.2474 -19.5428 -3.57999
LeftHand  0.0897001 2.95767 3.09627
HEad  -5.78339 -15.0819 -5.81185
RightUpLeg  -11.7827 -16.0486 6.76991
RightLeg  12.0655 -1.26524 -0.185183
RightFoot  -2.22539 -0.00656935 0.0470581
RightToes  -14.616 -0.0566998 -0.132187
340
root  26.2429 34.1731 25.152 2.81821 50.0255 -2.32002
LeftUpLeg  -23.4881 9.57849 4.16869
LeftLeg  37.1509 10.2783 6.72291
LeftFoot  -3.18719 -0.0187769 -0.674928
LeftToes  -8.82478 1.61378e-006 8.80029e-008
Spine  4.24012 2.31231 0.922176
Spine1  8.26318 4.91272 1.4558
RightShoulder  0.134478 6.79244 6.77842
RightArm  -29.1187 -3.05402 68.9929
RightForeArm  25.7301 19.1396 3.50381
RightHand  0.516967 -7.40414 -7.60024
LeftShoulder1  0.0063545 0.982916 -9.36091
LeftArm  -20.5275 12.4201 -72.7793
LeftForeArm  29.9686 -20.6925 -3.81023
LeftHand  0.0865852 2.6186 3.40799
HEad  -6.11739 -14.7777 -5.86826
RightUpLeg  -11.1625 -15.0924 6.33344
RightLeg  11.9192 -0.908221 -0.130225
RightFoot  -2.51378 -0.00732457 0.0437223
RightToes  -14.9436 -0.0586371 -0.134977
341
root  26.4796 34.1831 25.3961 3.32613 48.619 -1.89603
LeftUpLeg  -24.2833 7.33264 3.32967
LeftLeg  30.3666 10.3405 5.15149
LeftFoot  -1.53555 -0.00386378 -0.288328
LeftToes  -9.28151 1.61378e-006 8.80029e-008
Spine  4.29348 2.58272 0.805537
Spine1  8.34812 5.52174 1.22025
RightShoulder  0.141797 6.91263 6.72155
RightArm  -27.3576 -1.95552 69.366
RightForeArm  25.9226 19.4696 3.56911
RightHand  0.495045 -7.14629 -7.53835
LeftShoulder1  0.00547337 1.03602 -9.37098
LeftArm  -19.8666 11.0416 -72.6367
LeftForeArm  29.7695 -21.5998 -3.99448
LeftHand  0.0829045 2.4018 3.573
HEad  -6.44592 -14.4459 -5.8867
RightUpLeg  -10.6376 -14.6301 6.03181
RightLeg  11.734 -0.0112068 -0.000380349
RightFoot  -2.73223 -0.0087585 0.0102856
RightToes  -15.7234 -0.0606495 -0.141579
342
root  26.7328 34.187 25.6593 3.55542 47.1216 -1.92017
LeftUpLeg  -24.8729 5.81004 2.98172
LeftLeg  22.9227 8.53681 2.9633
LeftFoot  1.94693 -0.00585093 0.344328
LeftToes  -11.2072 1.61378e-006 8.80029e-008
Spine  4.3057 2.83012 0.77024
Spine1  8.36333 6.0747 1.15227
RightShoulder  0.149235 7.13543 6.63862
RightArm  -26.0584 -1.261 69.8429
RightForeArm  26.402 19.7026 3.61527
RightHand  0.479651 -6.99297 -7.46098
LeftShoulder1  0.00486238 1.02652 -9.36107
LeftArm  -19.5971 9.92679 -72.4989
LeftForeArm  29.6498 -22.3394 -4.14645
LeftHand  0.078865 2.23754 3.65545
HEad  -6.95052 -13.8804 -5.98579
RightUpLeg  -10.154 -14.4028 6.01437
RightLeg  11.5941 1.18508 0.165872
RightFoot  -2.9265 -0.0108029 -0.0453717
RightToes  -16.44 -0.062515 -0.147601
343
root  27.006 34.1786 25.946 3.76176 45.3978 -2.08028
LeftUpLeg  -25.3635 5.50414 2.67448
LeftLeg  15.6907 5.04856 1.07059
LeftFoot  7.18068 -0.0436286 0.69531
LeftToes  -12.4069 1.61378e-006 8.80029e-008
Spine  4.26292 3.05877 0.735449
Spine1  8.28363 6.5674 1.10934
RightShoulder  0.151294 7.36929 6.53678
RightArm  -24.9454 -0.913246 70.4913
RightForeArm  26.6827 19.7698 3.62857
RightHand  0.466274 -6.88457 -7.36291
LeftShoulder1  0.00455741 1.03265 -9.34928
LeftArm  -19.4848 9.13972 -72.2687
LeftForeArm  29.5741 -22.9514 -4.27345
LeftHand  0.0799266 2.14101 3.84393
HEad  -7.48593 -13.1442 -6.0322
RightUpLeg  -9.74695 -14.0685 6.06982
RightLeg  11.6078 2.52118 0.352091
RightFoot  -3.33661 -0.014709 -0.127494
RightToes  -16.77 -0.064568 -0.150359
